<svg xmlns="http://www.w3.org/2000/svg" role="img" aria-labelledby="title desc" viewBox="0 0 960 420">
  <title id="title">Vize tooling landscape</title>
  <desc id="desc">A relationship map for the tooling comparison. Vize is shown as the Vue-specific toolchain. Official Vue tooling, vue-tsc, and eslint-plugin-vue are reference-only context. Vite+ and Oxc/Oxlint are adjacent platform context. Vize uses corsa-bind and Corsa for the native type-check path. Verter, Golar, Flint, and TSSLint are comparison-only projects.</desc>
  <defs>
    <marker id="arrow-use" viewBox="0 0 10 10" refX="9" refY="5" markerWidth="8" markerHeight="8" orient="auto">
      <path d="M 0 0 L 10 5 L 0 10 z" fill="#4f6257" />
    </marker>
    <style>
      .bg { fill: #f8f6f0; }
      .panel { fill: #ede9df; stroke: #d8d0c6; stroke-width: 1.5; }
      .tile { fill: #fbfaf7; stroke: #d8d0c6; stroke-width: 1.4; }
      .core { fill: #e7f1ea; stroke: #698d73; stroke-width: 1.6; }
      .use { fill: #edf1f8; stroke: #6f7e98; stroke-width: 1.5; }
      .titleText { fill: #24211d; font: 600 22px ui-sans-serif, system-ui, -apple-system, BlinkMacSystemFont, "Segoe UI", sans-serif; }
      .nodeText { fill: #24211d; font: 600 14px ui-sans-serif, system-ui, -apple-system, BlinkMacSystemFont, "Segoe UI", sans-serif; }
      .small { fill: #655d55; font: 500 11px ui-sans-serif, system-ui, -apple-system, BlinkMacSystemFont, "Segoe UI", sans-serif; }
      .mono { fill: #5e665f; font: 600 12px ui-monospace, SFMono-Regular, Menlo, Monaco, Consolas, monospace; letter-spacing: 0; }
      .eyebrow { dominant-baseline: central; alignment-baseline: central; }
      .label { text-anchor: middle; dominant-baseline: central; alignment-baseline: central; }
      .lineUse { fill: none; stroke: #4f6257; stroke-width: 2.4; marker-end: url(#arrow-use); }
    </style>
  </defs>

  <rect class="bg" width="960" height="420" />

  <text x="56" y="58" class="mono">TOOLING COMPARE</text>
  <text x="56" y="88" class="titleText">Vize and the nearby tooling landscape</text>
  <text x="56" y="112" class="small">Blue line means used by Vize. Other areas are reference, platform, or comparison context.</text>

  <rect x="56" y="138" width="848" height="64" class="panel" />
  <text x="80" y="170" class="mono eyebrow">REFERENCE ONLY</text>
  <rect x="244" y="154" width="156" height="32" class="tile" />
  <text x="322" y="170" class="nodeText label">Official Vue</text>
  <rect x="420" y="154" width="116" height="32" class="tile" />
  <text x="478" y="170" class="nodeText label">vue-tsc</text>
  <rect x="556" y="154" width="196" height="32" class="tile" />
  <text x="654" y="170" class="nodeText label">eslint-plugin-vue</text>

  <rect x="56" y="218" width="264" height="112" class="panel" />
  <text x="80" y="246" class="mono eyebrow">ADJACENT PLATFORM</text>
  <rect x="80" y="270" width="88" height="34" class="tile" />
  <text x="124" y="287" class="nodeText label">Vite+</text>
  <rect x="184" y="270" width="122" height="34" class="tile" />
  <text x="245" y="287" class="nodeText label">Oxc/Oxlint</text>

  <rect x="354" y="218" width="240" height="112" class="core" />
  <text x="394" y="250" class="titleText">Vize</text>
  <text x="394" y="276" class="small">Vue-specific toolchain</text>
  <text x="394" y="296" class="small">compile / lint / check / LSP</text>
  <text x="394" y="314" class="small">Musea / diagnostics</text>

  <rect x="640" y="218" width="264" height="112" class="panel" />
  <text x="664" y="246" class="mono eyebrow">USED BY VIZE</text>
  <rect x="664" y="260" width="138" height="30" class="use" />
  <text x="733" y="275" class="nodeText label">corsa-bind</text>
  <text x="822" y="275" class="small">sessions</text>
  <rect x="664" y="296" width="138" height="30" class="use" />
  <text x="733" y="311" class="nodeText label">Corsa (tsgo)</text>
  <text x="822" y="311" class="small">TS runtime</text>
  <path d="M 594 274 L 654 275" class="lineUse" />

  <rect x="56" y="346" width="848" height="56" class="panel" />
  <text x="80" y="374" class="mono eyebrow">COMPARE ONLY</text>
  <rect x="244" y="361" width="108" height="30" class="tile" />
  <text x="298" y="376" class="nodeText label">Verter</text>
  <rect x="368" y="361" width="108" height="30" class="tile" />
  <text x="422" y="376" class="nodeText label">Golar</text>
  <rect x="492" y="361" width="108" height="30" class="tile" />
  <text x="546" y="376" class="nodeText label">Flint</text>
  <rect x="616" y="361" width="108" height="30" class="tile" />
  <text x="670" y="376" class="nodeText label">TSSLint</text>

  <text x="56" y="414" class="small">Reference and compare-only areas do not imply dependency.</text>
</svg>
